<svg id="Group_13450" data-name="Group 13450" xmlns="http://www.w3.org/2000/svg" width="28.813" height="28.813" viewBox="0 0 28.813 28.813">
  <path id="Path_125" data-name="Path 125" d="M512.216,14.358H510v5.91h2.216Zm.541,7.217a1.853,1.853,0,0,1-.541-1.306H510a4.071,4.071,0,0,0,1.189,2.874Zm1.306.541a1.85,1.85,0,0,1-1.306-.541l-1.568,1.568a4.07,4.07,0,0,0,2.874,1.189Zm20.686,0H514.063v2.216H534.75Zm1.306-.541a1.85,1.85,0,0,1-1.306.541v2.216a4.07,4.07,0,0,0,2.874-1.189Zm.541-1.306a1.853,1.853,0,0,1-.541,1.306l1.568,1.568a4.07,4.07,0,0,0,1.189-2.874Zm0,0h2.216v-5.91H536.6Zm-24.38-5.91a1.108,1.108,0,0,0-2.216,0Zm-1.108,5.91h0Zm27.7-5.91a1.108,1.108,0,0,0-2.216,0Z" transform="translate(-510 4.481)" fill="#fff"/>
  <path id="Path_126" data-name="Path 126" d="M523.279,17.531l7.388-7.388L529.1,8.575l-7.388,7.388Zm-8.954-7.388,7.388,7.388,1.566-1.568-7.388-7.388Zm16.342,0A1.108,1.108,0,1,0,529.1,8.575Zm-8.171,6.6-.783.785a1.11,1.11,0,0,0,1.566,0Zm-6.6-8.171a1.108,1.108,0,1,0-1.566,1.568Z" transform="translate(-508.09 2.093)" fill="#fff"/>
  <path id="Path_127" data-name="Path 127" d="M521.216,2.358H519V20.089h2.216Zm0,0a1.108,1.108,0,1,0-2.216,0ZM519,20.089a1.108,1.108,0,1,0,2.216,0Z" transform="translate(-505.702 -1.25)" fill="#fff"/>
</svg>
