<svg id="Group_2145" data-name="Group 2145" xmlns="http://www.w3.org/2000/svg" xmlns:xlink="http://www.w3.org/1999/xlink" width="81.441" height="43.525" viewBox="0 0 81.441 43.525">
  <defs>
    <clipPath id="clip-path">
      <rect id="Rectangle_770" data-name="Rectangle 770" width="81.441" height="43.525" fill="#04327a"/>
    </clipPath>
  </defs>
  <g id="Group_2144" data-name="Group 2144" transform="translate(0)" clip-path="url(#clip-path)">
    <path id="Path_404" data-name="Path 404" d="M35.693,29.1a1.356,1.356,0,0,1-1.307-1L28.036,4.709a1.354,1.354,0,0,1,.955-1.665L38.779.421a1.353,1.353,0,0,1,1.66.955l6.315,23.431a1.355,1.355,0,0,1-.962,1.663L36.04,29.053a1.33,1.33,0,0,1-.347.045M31.007,5.311l5.641,20.775L43.782,24.2,38.175,3.391Z" transform="translate(34.64 0.462)" fill="#04327a"/>
    <path id="Path_405" data-name="Path 405" d="M47.951,25.741a8.28,8.28,0,0,1-4.585-1.39L30.189,15.606a3.944,3.944,0,0,0-4.3-.036l-5.021,3.213a4.211,4.211,0,0,1-5.118-6.648l8.626-7.928A8.513,8.513,0,0,1,32.59,2.343L39.2,4.366a8.127,8.127,0,0,0,4.572.058l2.755-.765A1.355,1.355,0,0,1,48.2,4.61l5.024,18.506a1.355,1.355,0,0,1-.9,1.647l-1.853.586a8.324,8.324,0,0,1-2.517.392m-19.942-13.5a6.654,6.654,0,0,1,3.679,1.108l13.178,8.747a5.563,5.563,0,0,0,4.786.671l.611-.192L45.938,6.637l-1.439.4a10.847,10.847,0,0,1-6.091-.081L31.8,4.937A5.783,5.783,0,0,0,26.208,6.2l-8.629,7.928a1.493,1.493,0,0,0-.347,1.734A1.5,1.5,0,0,0,19.4,16.5l5.021-3.211a6.633,6.633,0,0,1,3.585-1.049" transform="translate(17.799 2.445)" fill="#04327a"/>
    <path id="Path_406" data-name="Path 406" d="M12.515,27.707a1.358,1.358,0,0,1-.575-.128L5.789,24.7a1.353,1.353,0,0,1-.682-1.734L12,5.851a1.358,1.358,0,0,1,1.455-.835l4.686.691a7.219,7.219,0,0,0,3.493-.354L31.4,1.8a5.816,5.816,0,0,1,4.167.069l3.719,1.5a1.356,1.356,0,1,1-1.014,2.515L34.55,4.384a3.088,3.088,0,0,0-2.224-.038L22.558,7.9a9.9,9.9,0,0,1-4.816.49l-3.627-.537L8.1,22.789l4.99,2.336a1.355,1.355,0,0,1-.575,2.582" transform="translate(6.197 1.788)" fill="#04327a"/>
    <path id="Path_407" data-name="Path 407" d="M11.27,21.346a4.055,4.055,0,0,1-3.3-6.4l1.716-2.423A4.052,4.052,0,0,1,16.3,17.209l-1.714,2.423a4.081,4.081,0,0,1-3.316,1.714M13,13.526a1.311,1.311,0,0,0-.228.02,1.342,1.342,0,0,0-.87.546l-1.714,2.423a1.343,1.343,0,0,0,.32,1.871,1.341,1.341,0,0,0,1.871-.32l1.714-2.421A1.342,1.342,0,0,0,13,13.526" transform="translate(8.943 13.384)" fill="#04327a"/>
    <path id="Path_408" data-name="Path 408" d="M12.985,26.121a4.158,4.158,0,0,1-3.39-6.563l5.158-7.286a4.161,4.161,0,0,1,6.791,4.809l-5.156,7.284a4.16,4.16,0,0,1-3.4,1.757m5.165-12.894a1.447,1.447,0,0,0-1.184.611l-5.158,7.284A1.45,1.45,0,1,0,14.175,22.8l5.156-7.284a1.451,1.451,0,0,0-.345-2.021,1.435,1.435,0,0,0-.837-.266" transform="translate(10.929 13.016)" fill="#04327a"/>
    <path id="Path_409" data-name="Path 409" d="M15.577,25.643a4.158,4.158,0,0,1-3.39-6.563l3.679-5.2a4.16,4.16,0,1,1,6.791,4.807l-3.677,5.2a4.161,4.161,0,0,1-3.4,1.754m3.688-10.806a1.55,1.55,0,0,0-.248.02,1.435,1.435,0,0,0-.938.593l-3.679,5.2a1.45,1.45,0,0,0,2.367,1.676l3.677-5.2A1.452,1.452,0,0,0,20.1,15.1a1.446,1.446,0,0,0-.835-.266" transform="translate(14.138 15.011)" fill="#04327a"/>
    <path id="Path_410" data-name="Path 410" d="M17.9,26.444A4.278,4.278,0,0,1,14.419,19.7l2.9-4.091a4.275,4.275,0,1,1,6.977,4.941L21.4,24.638a4.292,4.292,0,0,1-3.5,1.806m2.907-9.931a1.758,1.758,0,0,0-.266.022,1.558,1.558,0,0,0-1.014.64l-2.9,4.088a1.564,1.564,0,0,0,.374,2.18,1.565,1.565,0,0,0,2.18-.374l2.893-4.088a1.564,1.564,0,0,0-1.271-2.468" transform="translate(16.877 17.081)" fill="#04327a"/>
    <path id="Path_411" data-name="Path 411" d="M25.624,23.35a3.281,3.281,0,0,1-1.365-.3l-6.4-2.92a1.355,1.355,0,1,1,1.126-2.466l6.4,2.92a.576.576,0,0,0,.512-1.032l-3.56-1.913a1.357,1.357,0,0,1,1.284-2.39l3.56,1.913a3.289,3.289,0,0,1-1.56,6.185" transform="translate(21.124 18.676)" fill="#04327a"/>
    <path id="Path_412" data-name="Path 412" d="M28.951,25.319a3.871,3.871,0,0,1-1.7-.394l-3.511-1.714a1.356,1.356,0,0,1,1.188-2.437l3.511,1.712a1.13,1.13,0,0,0,1.063-1.994l-10.327-6a1.355,1.355,0,1,1,1.363-2.343l10.327,5.995a3.847,3.847,0,0,1-1.918,7.172" transform="translate(22.903 14.813)" fill="#04327a"/>
    <path id="Path_413" data-name="Path 413" d="M30.756,23.966a4,4,0,0,1-2.014-.548l-8.1-4.735a1.356,1.356,0,0,1,1.369-2.341l8.1,4.733a1.293,1.293,0,0,0,1.329-2.218L21.307,12.641a1.356,1.356,0,1,1,1.419-2.312l10.132,6.216a4,4,0,0,1-1.029,7.275,4.082,4.082,0,0,1-1.072.145" transform="translate(24.723 12.538)" fill="#04327a"/>
    <path id="Path_414" data-name="Path 414" d="M30.524,22.1a4.614,4.614,0,0,1-2.479-.723L24.073,18.87a1.356,1.356,0,1,1,1.448-2.294l3.972,2.508a1.954,1.954,0,0,0,2.124-3.28L24.5,11.079A1.355,1.355,0,1,1,26,8.821l7.12,4.724a4.666,4.666,0,0,1-1.475,8.42,4.761,4.761,0,0,1-1.117.134" transform="translate(29.014 10.636)" fill="#04327a"/>
    <path id="Path_415" data-name="Path 415" d="M11.423,29.249a1.369,1.369,0,0,1-.486-.09L.87,25.286a1.351,1.351,0,0,1-.779-1.752L8.816.868a1.357,1.357,0,0,1,1.721-.79L21.166,3.871a1.358,1.358,0,0,1,.794,1.8L20.707,8.66l-6.89,17.107L12.67,28.43a1.357,1.357,0,0,1-1.246.819M3.108,23.243,10.7,26.161l.62-1.437L18.194,7.638c.007-.018.712-1.694.712-1.694L10.873,3.077Z" transform="translate(0 -0.001)" fill="#04327a"/>
  </g>
</svg>
