<svg xmlns="http://www.w3.org/2000/svg" xmlns:xlink="http://www.w3.org/1999/xlink" width="75" height="75" viewBox="0 0 75 75">
  <defs>
    <clipPath id="clip-path">
      <rect id="Rectangle_9560" data-name="Rectangle 9560" width="69.65" height="35.819" transform="translate(0 0)" fill="none"/>
    </clipPath>
  </defs>
  <g id="Group_13939" data-name="Group 13939" transform="translate(11249 23934)">
    <rect id="Rectangle_9563" data-name="Rectangle 9563" width="75" height="75" transform="translate(-11249 -23934)" fill="none"/>
    <g id="Group_13937" data-name="Group 13937" transform="translate(-11246 -23914)" clip-path="url(#clip-path)">
      <path id="Path_573" data-name="Path 573" d="M13.944,35.82a4.89,4.89,0,0,1-.8-.068c-.029,0-.145-.03-.174-.038a5.568,5.568,0,0,1-.611-.158,1.355,1.355,0,0,1-.241-.1,4.681,4.681,0,0,1-.6-.281c-.09-.05-.177-.1-.261-.155a4.921,4.921,0,0,1-.519-.381c-.1-.076-.15-.12-.2-.167a4.8,4.8,0,0,1-.6-.656c-.019-.025-.059-.085-.075-.114a4.569,4.569,0,0,1-.388-.64c-.036-.07-.068-.143-.1-.215l-.058-.132a2.569,2.569,0,0,1-.119-.282L.277,6.667A5.023,5.023,0,0,1,9.771,3.38l4.173,12.058L18.118,3.38a5.023,5.023,0,0,1,9.494,3.287L18.691,32.439a2.939,2.939,0,0,1-.118.281l-.9-.3.838.436c-.03.073-.061.145-.1.215a5.012,5.012,0,0,1-.415.679,4.826,4.826,0,0,1-.65.733c-.049.045-.1.089-.157.132a5.272,5.272,0,0,1-.561.415c-.084.054-.17.105-.258.154a5.069,5.069,0,0,1-.644.3.719.719,0,0,1-.147.065c-.036.013-.1.029-.135.038a4.226,4.226,0,0,1-.511.13,1.846,1.846,0,0,1-.192.043,4.932,4.932,0,0,1-.8.068m-1.015-2.056a3.261,3.261,0,0,0,.395.1l.122.029a3.028,3.028,0,0,0,1,0l.125-.031a3.146,3.146,0,0,0,.367-.093c.065-.025.1-.041.123-.051a3.118,3.118,0,0,0,.4-.187c.055-.03.11-.063.164-.1a2.979,2.979,0,0,0,.323-.238c.006-.005.075-.06.081-.066a3.117,3.117,0,0,0,.42-.443,4,4,0,0,0,.288-.472l.038-.088c0-.005.035-.084.038-.089l.056-.123a.772.772,0,0,0,.041-.093L25.833,6.051A3.141,3.141,0,0,0,19.9,4L14.833,18.623a.941.941,0,0,1-1.779,0L7.992,4A3.141,3.141,0,1,0,2.056,6.051l8.92,25.772a.714.714,0,0,0,.043.094l.056.124.036.088.039.088a3.006,3.006,0,0,0,.258.423c.015.023.049.073.063.1a3.315,3.315,0,0,0,.341.361l.129.1a2.981,2.981,0,0,0,.321.237c.055.035.11.068.167.1a3.323,3.323,0,0,0,.4.185c.021.008.064.026.1.044" transform="translate(0 0)" fill="#fff"/>
      <path id="Path_574" data-name="Path 574" d="M30.233,35.818A5.028,5.028,0,0,1,25.21,30.8V5.024a5.023,5.023,0,0,1,10.046,0V30.8a5.029,5.029,0,0,1-5.024,5.023m0-33.935a3.144,3.144,0,0,0-3.141,3.141V30.8a3.141,3.141,0,0,0,6.282,0V5.024a3.144,3.144,0,0,0-3.141-3.141" transform="translate(6.373 0)" fill="#fff"/>
      <path id="Path_575" data-name="Path 575" d="M42.669,35.818a5.03,5.03,0,0,1-5.024-5.024V5.023A5.029,5.029,0,0,1,42.669,0h8.57a8.9,8.9,0,0,1,8.894,8.894V12.64a8.9,8.9,0,0,1-8.894,8.894H47.691v9.261a5.029,5.029,0,0,1-5.023,5.024m0-33.936a3.145,3.145,0,0,0-3.141,3.141V30.794a3.141,3.141,0,1,0,6.282,0v-10.2a.94.94,0,0,1,.941-.941h4.489a7.019,7.019,0,0,0,7.012-7.012V8.894a7.019,7.019,0,0,0-7.012-7.012ZM51.2,14.221H46.58a.941.941,0,0,1-.941-.941V8.254a.941.941,0,0,1,.941-.941H51.2a.94.94,0,0,1,.941.941V13.28a.94.94,0,0,1-.941.941m-3.676-1.882h2.735V9.194H47.522Z" transform="translate(9.517 0)" fill="#fff"/>
    </g>
  </g>
</svg>
