<svg xmlns="http://www.w3.org/2000/svg" width="24.004" height="14.954" viewBox="0 0 24.004 14.954">
  <path id="下載" d="M23.84,3.085A2.577,2.577,0,0,0,23.075,1.9a3.116,3.116,0,0,0-1.338-.693c-1.879-.462-9.4-.462-9.4-.462a81.986,81.986,0,0,0-9.39.439,3.228,3.228,0,0,0-1.339.71A2.675,2.675,0,0,0,.828,3.084,25.425,25.425,0,0,0,.34,8.215a25.383,25.383,0,0,0,.488,5.132A2.617,2.617,0,0,0,1.6,14.533a3.158,3.158,0,0,0,1.341.694c1.9.461,9.39.461,9.39.461a82.2,82.2,0,0,0,9.4-.439,3.115,3.115,0,0,0,1.338-.693,2.574,2.574,0,0,0,.765-1.186,24.819,24.819,0,0,0,.5-5.133,23.248,23.248,0,0,0-.5-5.153Zm-13.9,8.329v-6.4l6.26,3.2-6.26,3.2Z" transform="translate(-0.339 -0.738)"/>
</svg>
