<svg xmlns="http://www.w3.org/2000/svg" width="25.001" height="22.417" viewBox="0 0 25.001 22.417">
  <path id="下載_1_" data-name="下載 (1)" d="M20.51,9.114a.7.7,0,0,1,.48.173.62.62,0,0,1,.148.2.588.588,0,0,1-.149.687.665.665,0,0,1-.48.174H18.682v1.1h1.827a.693.693,0,0,1,.485.17.587.587,0,0,1,0,.9.665.665,0,0,1-.485.17H18.027a.677.677,0,0,1-.462-.182.6.6,0,0,1-.192-.436V7.394a.639.639,0,0,1,.654-.62h2.487a.676.676,0,0,1,.444.193.593.593,0,0,1,0,.854.677.677,0,0,1-.445.19H18.683v1.1h1.826ZM16.5,12.071a.6.6,0,0,1-.195.436.681.681,0,0,1-.464.18.7.7,0,0,1-.3-.063.657.657,0,0,1-.236-.181L12.763,9.187V12.07a.6.6,0,0,1-.193.437.685.685,0,0,1-.926,0,.6.6,0,0,1-.192-.437V7.393a.645.645,0,0,1,.65-.617.7.7,0,0,1,.517.249l2.563,3.263V7.393a.659.659,0,0,1,1.315,0v4.678Zm-5.98,0a.611.611,0,0,1-.195.437.68.68,0,0,1-.925,0,.6.6,0,0,1-.191-.435V7.393a.657.657,0,0,1,1.311,0Zm-2.569.617H5.463A.682.682,0,0,1,5,12.508a.605.605,0,0,1-.195-.437V7.393a.659.659,0,0,1,1.315,0v4.061H7.949a.682.682,0,0,1,.464.18.593.593,0,0,1,0,.874.677.677,0,0,1-.464.18Zm17.39-3.134C25.34,4.287,19.73,0,12.84,0S.34,4.287.34,9.554c0,4.72,4.448,8.673,10.454,9.424.407.08.96.253,1.1.579a2.271,2.271,0,0,1,.04,1.06l-.17,1c-.05.3-.253,1.162,1.09.633s7.207-4,9.83-6.842a8.216,8.216,0,0,0,2.654-5.854Z" transform="translate(-0.34)"/>
</svg>
