<svg xmlns="http://www.w3.org/2000/svg" width="26" height="26" viewBox="0 0 26 26">
  <g id="Group_13483" data-name="Group 13483" transform="translate(-962.332 -828.583)">
    <path id="Path_137" data-name="Path 137" d="M23.755,2.968.385,26.34,2.245,28.2l23.37-23.37ZM.385,26.34A1.314,1.314,0,1,0,2.245,28.2ZM25.615,4.828a1.315,1.315,0,0,0-1.86-1.86Z" transform="translate(962.332 826)" fill="#070203"/>
    <path id="Path_138" data-name="Path 138" d="M.384,4.828,23.756,28.2l1.858-1.86L2.244,2.968ZM23.756,28.2a1.314,1.314,0,0,0,1.858-1.86ZM2.244,2.968a1.315,1.315,0,0,0-1.86,1.86Z" transform="translate(962.332 826)" fill="#070203"/>
  </g>
</svg>
