<svg xmlns="http://www.w3.org/2000/svg" xmlns:xlink="http://www.w3.org/1999/xlink" width="176.55" height="43.099" viewBox="0 0 176.55 43.099">
  <defs>
    <linearGradient id="linear-gradient" x1="0.502" y1="0.502" x2="1.013" y2="1.013" gradientUnits="objectBoundingBox">
      <stop offset="0" stop-color="#ef4622"/>
      <stop offset="0.2" stop-color="#f15a21"/>
      <stop offset="0.52" stop-color="#f6851e"/>
      <stop offset="1" stop-color="#ffe300"/>
    </linearGradient>
    <linearGradient id="linear-gradient-3" x1="0.504" y1="0.496" x2="0" y2="1" gradientUnits="objectBoundingBox">
      <stop offset="0" stop-color="#073c87"/>
      <stop offset="0.2" stop-color="#00408a"/>
      <stop offset="0.52" stop-color="#0063ac"/>
      <stop offset="1" stop-color="#00aeef"/>
    </linearGradient>
  </defs>
  <g id="KGI_Futures_B3149-01" data-name="KGI Futures_B3149-01" transform="translate(-13.05 -13.05)">
    <g id="Group_2208" data-name="Group 2208">
      <g id="Group_2204" data-name="Group 2204">
        <path id="Path_464" data-name="Path 464" d="M74.06,23.35v1.81h9.53V23.35Zm1.37-1.03H83.6V16.84H81.57v3.69H79.84V16.09H77.81v4.44H76.08V16.84H74.05v4.12a1.372,1.372,0,0,0,1.37,1.37Zm6.8,3.84H74.06V30.3a1.377,1.377,0,0,0,1.36,1.37h8.17V27.53a1.361,1.361,0,0,0-1.36-1.36ZM81.47,30h-5.3V27.8h5.3Zm2.46,4.56-2.32.4.86-2.59H80.59l-1,2.93-1.78.29a11.661,11.661,0,0,0-.75-3.22H75.07a13.649,13.649,0,0,1,.89,3.5c-1.06.16-1.88.28-2.66.38v2.22c2.61-.48,7.66-1.7,10.62-2.32V34.57Zm10.19,2.2c-.49-.05-.66-.28-.66-.75V18.2a1.361,1.361,0,0,0-1.36-1.36H86.41V27.96c0,3.98-.31,7.91-2.87,10.72h2.3c2.61-3,2.7-6.36,2.7-10.72V18.67h2.57l.02,17.72c0,1.33.38,2.08,1.58,2.28a21.053,21.053,0,0,0,3.6.02l.38-1.95a22.77,22.77,0,0,1-2.56.03Z" fill="#00367b"/>
        <path id="Path_465" data-name="Path 465" d="M122.12,32.82a15.334,15.334,0,0,0,5.73,2.96v-2.1a10.217,10.217,0,0,1-5.47-3.89h5.47V27.92h-5.9V20.26h3.84V18.4h-3.84V16.12h-2.22V18.4h-7.4V16.12h-2.22V18.4h-3.84v1.87h3.84v7.66h-5.9V29.8h5.47a10.3,10.3,0,0,1-5.47,3.89v2.1a15.188,15.188,0,0,0,5.73-2.96v1.55h4.93v2.46h-8.38v1.87H125.6V36.84h-8.39V34.38h4.93V32.82Zm-2.42-6.21v1.31h-7.35V26.61Zm-7.35-1.86V23.43h7.35v1.32Zm0-4.49h7.35v1.31h-7.35Zm4.86,12.26V30.59h-2.36v1.93h-4.58a7.971,7.971,0,0,0,1.98-2.73h7.56a8.361,8.361,0,0,0,1.98,2.72h-4.58Z" fill="#00367b"/>
        <g id="Group_2203" data-name="Group 2203">
          <path id="Path_466" data-name="Path 466" d="M149.46,30.08h-2.04V20.63h2.04V18.76h-2.04V16.11h-2.14v2.65h-4.2V16.11h-2.14v2.65h-2.02v1.87h2.02v9.45h-2.29v2.14h12.82V30.08Zm-4.19,0h-4.2V28.21h4.2Zm0-3.81h-4.2V24.4h4.2Zm0-3.77h-4.2V20.63h4.2Z" fill="#00367b"/>
          <path id="Path_467" data-name="Path 467" d="M136.64,37.98l1.85.74a15.931,15.931,0,0,0,3.69-5.02l-2.26-.89a21.773,21.773,0,0,1-3.27,5.17Z" fill="#00367b"/>
          <path id="Path_468" data-name="Path 468" d="M145.95,32.81l-1.82.87a18.5,18.5,0,0,1,1.9,3.09l2.06-.92a20.772,20.772,0,0,0-2.14-3.04Z" fill="#00367b"/>
          <path id="Path_469" data-name="Path 469" d="M158.08,16.94h-6.84a.657.657,0,0,0-.74.74V27.99c0,3.84-.69,7.06-3.39,9.69l1.8,1.08a13.29,13.29,0,0,0,3.74-8.54h4.05v5.84c0,.44-.12.69-.62.74-.37.02-1.22,0-1.96-.05l.35,1.94a16.424,16.424,0,0,0,2.8-.05c1.23-.2,1.58-.96,1.58-2.26V17.68a.67.67,0,0,0-.77-.74ZM156.7,28.36h-4.05V24.47h4.05Zm0-5.76h-4.05V19.38a.265.265,0,0,1,.3-.3h3.44c.21,0,.32.1.32.3V22.6Z" fill="#00367b"/>
        </g>
        <path id="Path_470" data-name="Path 470" d="M183.53,35.23h4.46a.262.262,0,0,0,.3-.29V24.67q0-.24-.3-.27H170q-.24,0-.27.27V34.94c0,.19.09.29.27.29h4.09a48.6,48.6,0,0,1-5.96,1.36v2.06a32.06,32.06,0,0,0,7.06-1.83v-1.6h7.52v1.77c2.3.47,4.45.98,6.89,1.69V36.6c-1.77-.5-3.85-.96-6.08-1.39Zm-11.66-8.92c-.02-.06.01-.1.08-.1h14.1a.09.09,0,0,1,.1.1v1.13H171.88V26.31Zm0,2.85h14.27v1.29H171.87Zm.08,4.25a.1.1,0,0,1-.08-.12V32.17h14.27v1.12a.111.111,0,0,1-.1.12h-14.1Zm-2.41-9.89h1.79V18.59a11.906,11.906,0,0,0,1.45-2.21h-2.42a12.169,12.169,0,0,1-2.86,3.31v2.44a16.639,16.639,0,0,0,2.04-1.69V23.5Zm6.93,0h10.21a1.966,1.966,0,0,0,1.06-.33,1.435,1.435,0,0,0,.66-.92,12.254,12.254,0,0,0,.35-1.62l-1.98-.7-.16,1.21a.514.514,0,0,1-.58.51h-8.86a1.252,1.252,0,0,1-.72-.14c-.11-.09-.16-.31-.16-.65v-.49c4.05-.51,9.62-1.08,11.55-1.72V16.75c-1.95.74-8.27,1.48-11.55,1.82V16.38H174.1v4.57a3.311,3.311,0,0,0,.46,1.98,2.39,2.39,0,0,0,1.91.58Z" fill="#00367b"/>
      </g>
      <g id="Group_2207" data-name="Group 2207">
        <g id="Group_2205" data-name="Group 2205">
          <path id="Path_471" data-name="Path 471" d="M84,52.77a2.464,2.464,0,0,1-1.01.17,2.56,2.56,0,0,1-2.48-2.74,2.5,2.5,0,0,1,2.62-2.7,3.744,3.744,0,0,1,1.57.38l.03.02.5-.93-.02-.02a4.119,4.119,0,0,0-2.12-.57,3.913,3.913,0,0,0-4.23,3.79,3.867,3.867,0,0,0,4.18,3.88,7.933,7.933,0,0,0,2.47-.45h.02V50.5H83.98v2.27Z" fill="#00367b"/>
          <rect id="Rectangle_797" data-name="Rectangle 797" width="1.55" height="7.43" transform="translate(86.78 46.5)" fill="#00367b"/>
          <path id="Path_472" data-name="Path 472" d="M78.97,46.5H77.39l-2.53,3.16V46.5H73.31v7.43h1.55V50.25l2.7,3.68h1.9l-3.23-4.1Z" fill="#00367b"/>
        </g>
        <g id="Group_2206" data-name="Group 2206">
          <path id="Path_473" data-name="Path 473" d="M93.15,53.93h1.58V50.98h2.4V49.89h-2.4V47.58h2.45l.58-1.08H93.15Z" fill="#00367b"/>
          <path id="Path_474" data-name="Path 474" d="M102.9,50.85c0,1.18-.44,2.11-1.54,2.11-1.15,0-1.55-.75-1.56-2.19V46.51H98.25v4.53a3.018,3.018,0,0,0,.78,2.27,3.191,3.191,0,0,0,2.29.75,2.752,2.752,0,0,0,2.97-2.95v-4.6H102.9v4.34Z" fill="#00367b"/>
          <path id="Path_475" data-name="Path 475" d="M122.36,50.61a2.333,2.333,0,0,0,1.23-2.14c0-1.27-.97-1.96-2.39-1.96h-2.59v7.42h1.55V50.99h.82l1.43,2.94h1.76l-1.81-3.32Zm-1.63-.68h-.56V47.57h.73a1.016,1.016,0,0,1,1.14,1.08,1.238,1.238,0,0,1-1.31,1.29Z" fill="#00367b"/>
          <path id="Path_476" data-name="Path 476" d="M128.76,47.56l.56-1.05h-4.53v7.42h4.47V52.87h-2.92v-2.3h2.42V49.51h-2.42V47.56Z" fill="#00367b"/>
          <path id="Path_477" data-name="Path 477" d="M133.14,49.68c-.86-.68-1.37-1.05-1.36-1.5,0-.41.31-.74.92-.74a2.29,2.29,0,0,1,1.17.41l.03.02.02-.03.54-.79-.02-.02a2.785,2.785,0,0,0-1.88-.65c-1.35,0-2.37.81-2.37,1.82s.61,1.46,1.33,2.04c.59.46,1.57,1,1.56,1.78a.981.981,0,0,1-1.11.98,2.426,2.426,0,0,1-1.48-.58l-.03-.02-.57.9.02.02a3.321,3.321,0,0,0,2.19.74,2.307,2.307,0,0,0,2.58-2.03c0-.95-.54-1.55-1.53-2.34Z" fill="#00367b"/>
          <path id="Path_478" data-name="Path 478" d="M104.81,47.57h2.26v6.36h1.56V47.57h1.7l.57-1.06h-6.09Z" fill="#00367b"/>
          <path id="Path_479" data-name="Path 479" d="M116.08,50.85c0,1.18-.44,2.11-1.54,2.11-1.15,0-1.55-.75-1.56-2.19V46.51h-1.55v4.53a3.018,3.018,0,0,0,.78,2.27,3.191,3.191,0,0,0,2.29.75,2.764,2.764,0,0,0,2.98-2.95v-4.6h-1.39v4.34Z" fill="#00367b"/>
        </g>
      </g>
    </g>
    <g id="Group_2209" data-name="Group 2209">
      <path id="Path_480" data-name="Path 480" d="M13.05,34.6,34.6,13.05H13.05Z" fill="#00367b"/>
      <path id="Path_481" data-name="Path 481" d="M34.6,56.14,13.05,34.6V56.14Z" fill="#00367b"/>
      <path id="Path_482" data-name="Path 482" d="M34.6,56.14,56.14,34.6V56.14Z" fill="#00367b"/>
      <path id="Path_483" data-name="Path 483" d="M56.14,34.6,34.6,13.05H56.14Z" fill="#50b848"/>
      <path id="Path_484" data-name="Path 484" d="M34.6,13.05,13.05,34.6H34.6Z" fill="url(#linear-gradient)"/>
      <path id="Path_528" data-name="Path 528" d="M34.6,13.05,13.05,34.6H34.6Z" transform="translate(0 69.199) rotate(-90)" fill="url(#linear-gradient)"/>
      <path id="Path_486" data-name="Path 486" d="M56.14,34.6,34.6,56.14V34.6Z" fill="#fff"/>
      <path id="Path_487" data-name="Path 487" d="M56.14,34.6,34.6,13.05V34.6Z" fill="url(#linear-gradient-3)"/>
    </g>
  </g>
</svg>
